<svg width="16" height="16" viewBox="0 0 16 16" fill="none" xmlns="http://www.w3.org/2000/svg">
<g clip-path="url(#clip0_649_1032)">
<path d="M7.96046 12.0406L11.6835 14.0844L10.9736 9.75937L13.9868 6.69688L9.82348 6.06563L7.96046 2.12812V0C8.30192 0 8.64337 0.184375 8.82009 0.55625L10.776 4.69375L15.152 5.35625C15.9367 5.475 16.2512 6.48438 15.6821 7.0625L12.5162 10.2812L13.265 14.8281C13.3998 15.6438 12.5761 16.2656 11.8752 15.8813L7.96046 13.7375V12.0406Z" fill="#FFC403"/>
</g>
<g clip-path="url(#clip1_649_1032)">
<path d="M8.01219 12.0406L4.28915 14.0844L4.99902 9.75937L1.98584 6.69688L6.14918 6.06563L8.01219 2.12812V0C7.67074 0 7.32929 0.184375 7.15257 0.55625L5.1967 4.69375L0.820701 5.35625C0.0359567 5.475 -0.27854 6.48438 0.290549 7.0625L3.45648 10.2812L2.70768 14.8281C2.5729 15.6438 3.39658 16.2656 4.09746 15.8813L8.01219 13.7375V12.0406Z" fill="#FFC403"/>
</g>
<defs>
<clipPath id="clip0_649_1032">
<rect width="8.01278" height="16" fill="white" transform="translate(7.98633)"/>
</clipPath>
<clipPath id="clip1_649_1032">
<rect width="8.01278" height="16" fill="white"/>
</clipPath>
</defs>
</svg>
