<svg width="17" height="17" viewBox="0 0 17 17" fill="none" xmlns="http://www.w3.org/2000/svg">
<g clip-path="url(#clip0_649_939)">
<path d="M8.46046 12.5406L12.1835 14.5844L11.4736 10.2594L14.4868 7.19688L10.3235 6.56563L8.46046 2.62812V0.5C8.80192 0.5 9.14337 0.684375 9.32009 1.05625L11.276 5.19375L15.652 5.85625C16.4367 5.975 16.7512 6.98438 16.1821 7.5625L13.0162 10.7812L13.765 15.3281C13.8998 16.1438 13.0761 16.7656 12.3752 16.3813L8.46046 14.2375V12.5406Z" fill="#CFCFCF"/>
</g>
<g clip-path="url(#clip1_649_939)">
<path d="M8.51219 12.5406L4.78915 14.5844L5.49902 10.2594L2.48584 7.19688L6.64918 6.56563L8.51219 2.62812V0.5C8.17074 0.5 7.82929 0.684375 7.65257 1.05625L5.6967 5.19375L1.3207 5.85625C0.535957 5.975 0.22146 6.98438 0.790549 7.5625L3.95648 10.7812L3.20768 15.3281C3.0729 16.1438 3.89658 16.7656 4.59746 16.3813L8.51219 14.2375V12.5406Z" fill="#CFCFCF"/>
</g>
<defs>
<clipPath id="clip0_649_939">
<rect width="8.01278" height="16" fill="white" transform="translate(8.48633 0.5)"/>
</clipPath>
<clipPath id="clip1_649_939">
<rect width="8.01278" height="16" fill="white" transform="translate(0.5 0.5)"/>
</clipPath>
</defs>
</svg>
