<svg width="15" height="16" viewBox="0 0 15 16" fill="none" xmlns="http://www.w3.org/2000/svg">
<path d="M7.51143 0C7.19132 0 6.87121 0.184375 6.70553 0.55625L4.87191 4.69375L0.769407 5.35625C0.0337094 5.475 -0.261131 6.48438 0.27239 7.0625L3.24045 10.2812L2.53845 14.8281C2.41209 15.6438 3.18429 16.2656 3.84137 15.8813L7.51143 13.7375V0Z" fill="#FFC403"/>
<path d="M7.46513 0C7.78524 0 8.10536 0.184375 8.27103 0.55625L10.1047 4.69375L14.2072 5.35625C14.9429 5.475 15.2377 6.48438 14.7042 7.0625L11.7361 10.2812L12.4381 14.8281C12.5645 15.6438 11.7923 16.2656 11.1352 15.8813L7.46513 13.7375V0Z" fill="#FFC403"/>
</svg>
